<mxfile host="app.diagrams.net" modified="2021-07-23T08:32:11.154Z" agent="5.0 (Windows NT 10.0; Win64; x64) AppleWebKit/537.36 (KHTML, like Gecko) Chrome/91.0.4472.124 Safari/537.36" etag="zYO2vpdW5Nm4eze5l0Br" version="14.8.1" type="github" pages="4">
  <diagram id="FqKHfnpljIh84uWXAkjb" name="Page-1">
    <mxGraphModel dx="1422" dy="794" grid="1" gridSize="10" guides="1" tooltips="1" connect="1" arrows="1" fold="1" page="1" pageScale="1" pageWidth="1169" pageHeight="1654" math="0" shadow="0">
      <root>
        <mxCell id="0" />
        <mxCell id="1" parent="0" />
        <mxCell id="BYPLxAjAoLbrIGrD7Hlg-6" style="edgeStyle=orthogonalEdgeStyle;rounded=0;orthogonalLoop=1;jettySize=auto;html=1;entryX=0.5;entryY=0;entryDx=0;entryDy=0;" edge="1" parent="1" source="BYPLxAjAoLbrIGrD7Hlg-1" target="BYPLxAjAoLbrIGrD7Hlg-3">
          <mxGeometry relative="1" as="geometry" />
        </mxCell>
        <mxCell id="BYPLxAjAoLbrIGrD7Hlg-1" value="&lt;font style=&quot;font-size: 16px&quot;&gt;用户管理/登录&lt;/font&gt;" style="rounded=1;whiteSpace=wrap;html=1;" vertex="1" parent="1">
          <mxGeometry x="452.5" y="300" width="135" height="70" as="geometry" />
        </mxCell>
        <mxCell id="BYPLxAjAoLbrIGrD7Hlg-3" value="" style="swimlane;startSize=0;" vertex="1" parent="1">
          <mxGeometry x="270" y="420" width="500" height="230" as="geometry" />
        </mxCell>
        <mxCell id="BYPLxAjAoLbrIGrD7Hlg-2" value="&lt;font style=&quot;font-size: 14px&quot;&gt;基础信息管理&lt;/font&gt;" style="rounded=1;whiteSpace=wrap;html=1;" vertex="1" parent="BYPLxAjAoLbrIGrD7Hlg-3">
          <mxGeometry x="30" y="30" width="120" height="60" as="geometry" />
        </mxCell>
        <mxCell id="BYPLxAjAoLbrIGrD7Hlg-7" value="&lt;font style=&quot;font-size: 14px&quot;&gt;库存管理&lt;/font&gt;" style="rounded=1;whiteSpace=wrap;html=1;" vertex="1" parent="BYPLxAjAoLbrIGrD7Hlg-3">
          <mxGeometry x="190" y="30" width="120" height="60" as="geometry" />
        </mxCell>
        <mxCell id="BYPLxAjAoLbrIGrD7Hlg-8" value="&lt;font style=&quot;font-size: 14px&quot;&gt;销售管理&lt;/font&gt;" style="rounded=1;whiteSpace=wrap;html=1;" vertex="1" parent="BYPLxAjAoLbrIGrD7Hlg-3">
          <mxGeometry x="350" y="30" width="120" height="60" as="geometry" />
        </mxCell>
        <mxCell id="BYPLxAjAoLbrIGrD7Hlg-9" value="&lt;font style=&quot;font-size: 14px&quot;&gt;进货管理&lt;/font&gt;" style="rounded=1;whiteSpace=wrap;html=1;" vertex="1" parent="BYPLxAjAoLbrIGrD7Hlg-3">
          <mxGeometry x="110" y="130" width="120" height="60" as="geometry" />
        </mxCell>
        <mxCell id="BYPLxAjAoLbrIGrD7Hlg-10" value="&lt;font style=&quot;font-size: 14px&quot;&gt;系统管理&lt;/font&gt;" style="rounded=1;whiteSpace=wrap;html=1;" vertex="1" parent="BYPLxAjAoLbrIGrD7Hlg-3">
          <mxGeometry x="280" y="130" width="120" height="60" as="geometry" />
        </mxCell>
      </root>
    </mxGraphModel>
  </diagram>
  <diagram id="FdBkEeRKhzxmCmDslsyw" name="Page-2">
    <mxGraphModel dx="1422" dy="738" grid="1" gridSize="10" guides="1" tooltips="1" connect="1" arrows="1" fold="1" page="1" pageScale="1" pageWidth="1169" pageHeight="1654" math="0" shadow="0">
      <root>
        <mxCell id="aa6stKhaOgIwMhPaHTI9-0" />
        <mxCell id="aa6stKhaOgIwMhPaHTI9-1" parent="aa6stKhaOgIwMhPaHTI9-0" />
        <mxCell id="aa6stKhaOgIwMhPaHTI9-4" value="基础信息管理模块" style="swimlane;fontSize=15;startSize=40;" vertex="1" parent="aa6stKhaOgIwMhPaHTI9-1">
          <mxGeometry x="320" y="290" width="490" height="160" as="geometry" />
        </mxCell>
        <mxCell id="aa6stKhaOgIwMhPaHTI9-5" value="&lt;font style=&quot;font-size: 15px&quot;&gt;添加信息&lt;/font&gt;" style="rounded=1;whiteSpace=wrap;html=1;" vertex="1" parent="aa6stKhaOgIwMhPaHTI9-4">
          <mxGeometry x="20" y="60" width="120" height="70" as="geometry" />
        </mxCell>
        <mxCell id="aa6stKhaOgIwMhPaHTI9-6" value="&lt;font style=&quot;font-size: 15px&quot;&gt;删除信息&lt;/font&gt;" style="rounded=1;whiteSpace=wrap;html=1;" vertex="1" parent="aa6stKhaOgIwMhPaHTI9-4">
          <mxGeometry x="185" y="60" width="120" height="70" as="geometry" />
        </mxCell>
        <mxCell id="aa6stKhaOgIwMhPaHTI9-7" value="&lt;font style=&quot;font-size: 15px&quot;&gt;查询信息&lt;/font&gt;" style="rounded=1;whiteSpace=wrap;html=1;" vertex="1" parent="aa6stKhaOgIwMhPaHTI9-4">
          <mxGeometry x="350" y="60" width="120" height="70" as="geometry" />
        </mxCell>
      </root>
    </mxGraphModel>
  </diagram>
  <diagram id="q-tBFdw0kQQYdSiffums" name="Page-3">
    <mxGraphModel dx="1422" dy="738" grid="1" gridSize="10" guides="1" tooltips="1" connect="1" arrows="1" fold="1" page="1" pageScale="1" pageWidth="1169" pageHeight="1654" math="0" shadow="0">
      <root>
        <mxCell id="90tNrsGER5UUQDTTZt9c-0" />
        <mxCell id="90tNrsGER5UUQDTTZt9c-1" parent="90tNrsGER5UUQDTTZt9c-0" />
        <mxCell id="uF6dHxeo_ntAS9b1g2mc-0" value="库存管理模块" style="swimlane;fontSize=15;startSize=40;" vertex="1" parent="90tNrsGER5UUQDTTZt9c-1">
          <mxGeometry x="320" y="290" width="490" height="160" as="geometry" />
        </mxCell>
        <mxCell id="uF6dHxeo_ntAS9b1g2mc-1" value="&lt;font style=&quot;font-size: 15px&quot;&gt;仓库明细&lt;/font&gt;" style="rounded=1;whiteSpace=wrap;html=1;" vertex="1" parent="uF6dHxeo_ntAS9b1g2mc-0">
          <mxGeometry x="20" y="60" width="120" height="70" as="geometry" />
        </mxCell>
        <mxCell id="uF6dHxeo_ntAS9b1g2mc-2" value="&lt;font style=&quot;font-size: 15px&quot;&gt;库存车辆&lt;/font&gt;" style="rounded=1;whiteSpace=wrap;html=1;" vertex="1" parent="uF6dHxeo_ntAS9b1g2mc-0">
          <mxGeometry x="185" y="60" width="120" height="70" as="geometry" />
        </mxCell>
        <mxCell id="uF6dHxeo_ntAS9b1g2mc-3" value="&lt;font style=&quot;font-size: 15px&quot;&gt;进销存统计&lt;/font&gt;" style="rounded=1;whiteSpace=wrap;html=1;" vertex="1" parent="uF6dHxeo_ntAS9b1g2mc-0">
          <mxGeometry x="350" y="60" width="120" height="70" as="geometry" />
        </mxCell>
      </root>
    </mxGraphModel>
  </diagram>
  <diagram id="0pakxRmoe1j2Cki8_XNk" name="Page-4">
    <mxGraphModel dx="1422" dy="738" grid="1" gridSize="10" guides="1" tooltips="1" connect="1" arrows="1" fold="1" page="1" pageScale="1" pageWidth="1169" pageHeight="1654" math="0" shadow="0">
      <root>
        <mxCell id="EVJJixfbn0oJy2-eMCaa-0" />
        <mxCell id="EVJJixfbn0oJy2-eMCaa-1" parent="EVJJixfbn0oJy2-eMCaa-0" />
        <mxCell id="EVJJixfbn0oJy2-eMCaa-2" value="销售管理模块" style="swimlane;fontSize=15;" vertex="1" parent="EVJJixfbn0oJy2-eMCaa-1">
          <mxGeometry x="480" y="280" width="390" height="250" as="geometry" />
        </mxCell>
        <mxCell id="EVJJixfbn0oJy2-eMCaa-6" style="edgeStyle=orthogonalEdgeStyle;rounded=0;orthogonalLoop=1;jettySize=auto;html=1;exitX=0.5;exitY=1;exitDx=0;exitDy=0;entryX=0.5;entryY=0;entryDx=0;entryDy=0;fontSize=15;" edge="1" parent="EVJJixfbn0oJy2-eMCaa-2" source="EVJJixfbn0oJy2-eMCaa-3" target="EVJJixfbn0oJy2-eMCaa-5">
          <mxGeometry relative="1" as="geometry" />
        </mxCell>
        <mxCell id="EVJJixfbn0oJy2-eMCaa-3" value="查询库存" style="rounded=1;whiteSpace=wrap;html=1;fontSize=15;" vertex="1" parent="EVJJixfbn0oJy2-eMCaa-2">
          <mxGeometry x="40" y="60" width="120" height="60" as="geometry" />
        </mxCell>
        <mxCell id="EVJJixfbn0oJy2-eMCaa-4" value="添加客户信息" style="rounded=1;whiteSpace=wrap;html=1;fontSize=15;" vertex="1" parent="EVJJixfbn0oJy2-eMCaa-2">
          <mxGeometry x="230" y="60" width="120" height="60" as="geometry" />
        </mxCell>
        <mxCell id="EVJJixfbn0oJy2-eMCaa-5" value="出售车辆" style="rounded=1;whiteSpace=wrap;html=1;fontSize=15;" vertex="1" parent="EVJJixfbn0oJy2-eMCaa-2">
          <mxGeometry x="135" y="160" width="120" height="60" as="geometry" />
        </mxCell>
        <mxCell id="EVJJixfbn0oJy2-eMCaa-7" style="edgeStyle=orthogonalEdgeStyle;rounded=0;orthogonalLoop=1;jettySize=auto;html=1;exitX=0.5;exitY=1;exitDx=0;exitDy=0;fontSize=15;" edge="1" parent="EVJJixfbn0oJy2-eMCaa-1" source="EVJJixfbn0oJy2-eMCaa-4">
          <mxGeometry relative="1" as="geometry">
            <mxPoint x="680" y="440" as="targetPoint" />
          </mxGeometry>
        </mxCell>
      </root>
    </mxGraphModel>
  </diagram>
</mxfile>
